PathFileType	4	(x/y/z)	A01_PREF_T0017.trc
DataRate	CameraRate	NumFrames	NumMarkers	Units	OrigDataRate	OrigDataStartFrame	OrigNumFrames
240	240	4	48	mm	240	1	289
Frame#	Time	TOP_HEAD			R_AC			L_AC			R_ASIS			L_ASIS			R_PSIS			L_PSIS			SACRAL			L_IC			R_IC			L_GT			R_GT			R_LAT_KNEE			R_MED_KNEE			L_MED_KNEE			L_LAT_KNEE			R_TOE			L_TOE			R_1ST_MET			L_1ST_MET			L_5TH_MET			R_5TH_MET			R_LAT_ANK			R_MED_ANK			L_MED_ANK			L_LAT_ANK			L_HEEL_SUP			R_HEEL_SUP			L_HEEL_LAT			R_HEEL_LAT			L_HEEL_MED			R_HEEL_MED			R_SHANK_PROX_POST			R_SHANK_PROX_ANT			R_SHANK_DIST_ANT			R_SHANK_DIST_POST			R_THIGH_PROX_POST			R_THIGH_PROX_ANT			R_THIGH_DIST_ANT			R_THIGH_DIST_POST			L_SHANK_PROX_ANT			L_SHANK_PROX_POST			L_SHANK_DIST_POST			L_SHANK_DIST_ANT			L_THIGH_PROX_ANT			L_THIGH_PROX_POST			L_THIGH_DIST_POST			L_THIGH_DIST_ANT			
		X1	Y1	Z1	X2	Y2	Z2	X3	Y3	Z3	X4	Y4	Z4	X5	Y5	Z5	X6	Y6	Z6	X7	Y7	Z7	X8	Y8	Z8	X9	Y9	Z9	X10	Y10	Z10	X11	Y11	Z11	X12	Y12	Z12	X13	Y13	Z13	X14	Y14	Z14	X15	Y15	Z15	X16	Y16	Z16	X17	Y17	Z17	X18	Y18	Z18	X19	Y19	Z19	X20	Y20	Z20	X21	Y21	Z21	X22	Y22	Z22	X23	Y23	Z23	X24	Y24	Z24	X25	Y25	Z25	X26	Y26	Z26	X27	Y27	Z27	X28	Y28	Z28	X29	Y29	Z29	X30	Y30	Z30	X31	Y31	Z31	X32	Y32	Z32	X33	Y33	Z33	X34	Y34	Z34	X35	Y35	Z35	X36	Y36	Z36	X37	Y37	Z37	X38	Y38	Z38	X39	Y39	Z39	X40	Y40	Z40	X41	Y41	Z41	X42	Y42	Z42	X43	Y43	Z43	X44	Y44	Z44	X45	Y45	Z45	X46	Y46	Z46	X47	Y47	Z47	X48	Y48	Z48	

1	0	-518.32	1739.7	312.25	-770.01	1549.6	525.68	-779.83	1560.7	67.843	-796.75	1088.2	495.83	-759.76	1026.2	146.9	-998.42	1107.3	341.22	-975.37	1092.3	214.02	-1007.3	1072.1	275.08	-791.53	1154.5	102.41	-824.66	1191.7	503.34	-810.94	946.28	99.468	-889.05	990.52	525.5	-1023	605.45	452.62	NaN	NaN	NaN	-678.03	569.35	345.6	-696.55	564.68	185.89	-1012.7	64.339	335.26	-313.25	197.71	254.78	-1091.6	53.785	291.25	-374.16	138.32	308.98	-393.34	115.54	180.79	-1117.2	44.514	425.85	-1193.4	163.1	410.19	-1179.1	173.04	310.03	-525.11	154.64	288.48	-546.63	134.85	220.88	-600.72	50.049	260.85	-1296.9	171.19	350.21	-576.78	28.385	229.32	-1300.3	143.13	381.99	-569.29	31.721	293.49	-1294.1	143.54	321.97	-1168.6	468.09	439.03	-1108.1	438.06	466.29	-1125.2	365.87	446.95	-1176.5	385.72	430.27	-969.39	874.07	494.6	-899.04	870.53	512.16	-922.32	782.48	500.18	-988.9	787.07	482.41	-619.45	510.48	200.61	-668.31	485.87	188.81	-646.56	426.68	197.35	-603.12	456.69	208.93	-710.31	824.44	154.37	-772.98	808.92	122.14	-744.25	740.95	142.94	-688.52	755.75	171.91
2	0.0041811	-513.45	1738.7	311.84	-764.73	1548.3	525.21	-774.93	1559.2	67.376	-792.01	1087.1	495.94	-754.12	1025.1	146.87	-993.13	1106	340.94	-969.95	1090.9	213.79	-1002	1070.8	274.81	-786.29	1153.2	102.15	-819.63	1190.6	503.23	-805.09	944.93	99.62	-884.15	989.61	525.6	-1019.1	604.94	452.86	NaN	NaN	NaN	-672.29	568.55	346.3	-690.66	563.67	186.6	-1012.7	64.33	335.26	-307.36	195.39	256.67	-1091.5	53.745	291.23	-368.8	136.4	310.69	-388.17	114.22	182.44	-1117.1	44.522	425.89	-1192.3	163.64	410.46	-1177.9	173.64	310.26	-519.81	153.58	289.85	-541.3	133.69	222.25	-596	50.433	262.4	-1295.7	172.54	350.34	-572.33	28.653	230.84	-1299.3	144.4	382.1	-564.71	31.686	294.99	-1293.1	144.92	322.02	-1165.5	468.54	439.15	-1105.2	438.1	466.51	-1122.8	365.99	447.17	-1173.9	386.2	430.4	-964.75	873.41	494.63	-894.46	869.76	512.38	-917.92	781.75	500.44	-984.43	786.44	482.5	-613.59	509.39	201.5	-662.49	484.84	189.64	-640.85	425.65	198.28	-597.33	455.62	209.86	-704.49	823.38	155.11	-767.12	807.78	122.94	-738.36	739.86	143.82	-682.63	754.75	172.77
3	0.0083623	-508.38	1737.6	311.42	-759.23	1547	524.71	-769.81	1557.8	66.873	-787.05	1086.1	496.06	-748.21	1023.8	146.87	-987.62	1104.8	340.65	-964.29	1089.5	213.54	-996.48	1069.4	274.54	-780.79	1151.8	101.88	-814.37	1189.5	503.13	-798.98	943.53	99.803	-879.04	988.66	525.71	-1014.9	604.4	453.12	NaN	NaN	NaN	-666.31	567.74	347.02	-684.51	562.68	187.33	-1012.7	64.322	335.26	-301.37	192.85	258.59	-1091.4	53.703	291.2	-363.38	134.33	312.42	-382.95	112.76	184.11	-1116.9	44.527	425.94	-1191.1	164.2	410.75	-1176.5	174.28	310.53	-514.46	152.47	291.22	-535.92	132.5	223.61	-591.26	50.854	263.91	-1294.4	173.96	350.49	-567.88	28.939	232.33	-1298.2	145.74	382.22	-560.14	31.667	296.47	-1292	146.38	322.07	-1162.2	469	439.27	-1102.2	438.14	466.74	-1120.2	366.12	447.41	-1171.1	386.7	430.55	-959.9	872.72	494.66	-889.67	868.95	512.61	-913.32	780.99	500.71	-979.75	785.78	482.61	-607.5	508.29	202.41	-656.46	483.82	190.49	-634.95	424.62	199.22	-591.34	454.52	210.81	-698.42	822.28	155.87	-761.03	806.6	123.78	-732.23	738.73	144.72	-676.5	753.71	173.64
4	0.012543	-503.13	1736.5	310.97	-753.55	1545.7	524.18	-764.49	1556.2	66.335	-781.88	1085	496.18	-742.09	1022.6	146.9	-981.91	1103.4	340.36	-958.43	1088	213.29	-990.76	1068.1	274.27	-775.06	1150.4	101.62	-808.92	1188.3	503.01	-792.64	942.08	100.02	-873.74	987.69	525.83	-1010.5	603.83	453.4	NaN	NaN	NaN	-660.14	566.93	347.74	-678.14	561.73	188.07	-1012.8	64.316	335.26	-295.35	190.1	260.52	-1091.3	53.661	291.18	-357.99	132.09	314.14	-377.73	111.15	185.78	-1116.7	44.53	425.99	-1189.8	164.79	411.07	-1175.1	174.93	310.82	-509.13	151.3	292.59	-530.55	131.29	224.95	-586.59	51.312	265.36	-1293.1	175.46	350.65	-563.5	29.244	233.78	-1297.1	147.14	382.35	-555.66	31.667	297.91	-1290.8	147.92	322.13	-1158.7	469.49	439.41	-1098.9	438.18	467.01	-1117.5	366.26	447.68	-1168.2	387.22	430.71	-954.86	872	494.7	-884.69	868.12	512.86	-908.53	780.21	501.01	-974.88	785.09	482.73	-601.22	507.19	203.34	-650.24	482.82	191.35	-628.9	423.61	200.17	-585.18	453.42	211.78	-692.15	821.15	156.65	-754.73	805.41	124.63	-725.9	737.57	145.64	-670.16	752.63	174.52
